<svg id="Layer_1" enable-background="new 0 0 511.675 511.675" height="512" viewBox="0 0 511.675 511.675" width="512" xmlns="http://www.w3.org/2000/svg"><g><path d="m333.899 208.932 26.605.944c.366-1.219.678-2.46.918-3.729.673-3.563-1.992-6.88-5.619-6.88h-61.129c-3.626 0-6.292 3.317-5.619 6.88 2.114 11.183 9.283 20.578 19.043 25.72 1.078-13.236 12.392-23.411 25.801-22.935z"/><path d="m202.542 227.829c7.499-5.409 12.885-13.566 14.669-23.001.673-3.563-1.992-6.88-5.619-6.88h-61.129c-3.626 0-6.292 3.317-5.619 6.88.426 2.255 1.064 4.435 1.881 6.525l31.052-1.102c11.531-.409 21.509 7.06 24.765 17.578z"/><ellipse cx="90.359" cy="116.186" rx="34.483" ry="34.483" transform="matrix(.939 -.343 .343 .939 -34.384 38.064)"/><path d="m309.636 242.796h-32.106c2.012-1.175 3.283-3.481 2.92-6.051-.422-2.99-3.133-5.129-6.153-5.129h-10.028v-60.961h-18v60.961h-10.028c-3.019 0-5.731 2.139-6.153 5.129-.362 2.569.909 4.876 2.92 6.051h-30.513c-3.106 9.79-12.093 17.039-22.945 17.424l-23.422.831v1.444c0 6.044 4.9 10.944 10.944 10.944h183.51c6.044 0 10.944-4.9 10.944-10.944v-2.551l-29.401-1.044c-10.359-.367-19.022-6.988-22.489-16.104z"/><path d="m93.032 254.36-16.747-30.45 22.988 25.026c3.175 3.456 7.647 5.414 12.322 5.414.198 0 .396-.003.595-.011l67.067-2.381c9.236-.328 16.457-8.081 16.129-17.316-.328-9.236-8.087-16.459-17.316-16.129l-59.364 2.107-19.415-21.135 18.607 12.892 2.807-.1v-24.302c0-12.627-10.236-22.863-22.863-22.863h-39.494c-12.627 0-22.863 10.236-22.863 22.863v101.755c0 10.809 6.555 20.085 15.906 24.074h-16.171c-4.636 0-8.407-3.771-8.407-8.407v-122.034c0-7.404-6.002-13.406-13.406-13.406s-13.407 6.002-13.407 13.406v122.034c0 16.641 11.605 30.613 27.144 34.274v81.621c0 5.523 4.477 10 10 10s10-4.477 10-10v-80.676h58.587v80.676c0 5.523 4.477 10 10 10s10-4.477 10-10v-80.676h13.737c4.441 0 8.366-2.169 10.806-5.495l27.739 81.577c3.564 10.484 14.959 16.121 25.475 12.547 10.5-3.57 16.117-14.976 12.547-25.476l-35.232-103.614c-2.179-6.408-7.439-11.286-13.992-12.978l-46.104-11.903v-12.967l-8.223.292c-1.62-.297-13.418 2.681-19.452-8.239z"/><path d="m324.224 177.717c.768 1.277 2.719.938 3.06-.512.202-.858.396-1.683.623-2.469 1.724-6.085 4.29-7.414 7.242-14.148.807-1.815 1.878-4.581 1.986-6.766.709-7.046-3.884-12.396-9.058-14.237-1.423-.506-2.731 1.007-2.048 2.354 4.494 8.867 1.442 10.249-2.211 19.775-2.114 5.59-2.657 10.913.406 16.003z"/><path d="m179.831 167.31c.768 1.277 2.719.938 3.06-.512.202-.858.396-1.683.623-2.469 1.874-6.617 5.436-8.579 8.399-17.068.365-1.255.761-2.472.829-3.846.709-7.047-3.885-12.397-9.06-14.238-1.422-.506-2.73 1.006-2.049 2.353 4.488 8.87 1.423 10.307-2.209 19.777-2.112 5.59-2.655 10.913.407 16.003z"/><ellipse cx="421.316" cy="114.867" rx="34.483" ry="34.483" transform="matrix(.768 -.641 .641 .768 24.197 296.52)"/><path d="m498.269 171.276c-7.404 0-13.406 6.002-13.406 13.406v119.396c0 4.636-3.771 8.407-8.407 8.407h-16.171c9.351-3.989 15.906-13.265 15.906-24.073v-101.756c0-12.627-10.236-22.863-22.863-22.863h-39.496c-12.627 0-22.863 10.236-22.863 22.863v24.302l2.807.1 18.607-12.892-19.415 21.135-59.363-2.107c-9.224-.333-16.989 6.893-17.316 16.129-.328 9.236 6.894 16.989 16.129 17.316l67.066 2.381c.199.007.396.011.595.011 4.675 0 9.147-1.958 12.322-5.414l22.989-25.026-16.747 30.45c-5.976 10.866-17.993 8.001-19.452 8.241l-8.223-.292v12.967l-46.105 11.903c-6.553 1.691-11.813 6.57-13.991 12.978l-35.232 103.614c-3.57 10.5 2.047 21.905 12.546 25.475 10.52 3.578 21.913-2.068 25.476-12.546l27.739-81.577c2.439 3.326 6.365 5.495 10.806 5.495h13.737v80.676c0 5.523 4.478 10 10 10s10-4.477 10-10v-80.676h58.587v80.676c0 5.523 4.478 10 10 10s10-4.477 10-10v-81.621c15.539-3.661 27.144-17.633 27.144-34.274v-119.398c0-7.404-6.002-13.406-13.406-13.406z"/><path d="m254.702 167.474c3.971 0 7.189-3.219 7.189-7.189 0-2.813-3.607-9.916-5.711-13.82-.635-1.179-2.321-1.179-2.956 0-2.104 3.904-5.711 11.008-5.711 13.82-.001 3.97 3.218 7.189 7.189 7.189z"/></g></svg>