<?xml version="1.0"?>
<svg xmlns="http://www.w3.org/2000/svg" width="512" height="512" viewBox="0 0 512 512"><g><path d="M471.94,436.17a87.8,87.8,0,0,0-66.37-61.91L320,353.69V336.51a7.915,7.915,0,0,0-.25-1.96c22.55-17.35,41.4-42.25,46.73-70.55H372a28.031,28.031,0,0,0,28-28V212a28.043,28.043,0,0,0-24-27.71V168a8,8,0,0,0-8-8V103.19a56,56,0,0,0-76-82.08,55.983,55.983,0,0,0-72,0,56,56,0,0,0-76,82.08V160a8,8,0,0,0-8,8v16.29A28.043,28.043,0,0,0,112,212v24a28.031,28.031,0,0,0,28,28h5.52c5.33,28.3,24.18,53.2,46.73,70.55a7.915,7.915,0,0,0-.25,1.96v17.18l-85.57,20.57a87.8,87.8,0,0,0-66.37,61.91,8.075,8.075,0,0,0-.31,2.24L40,496.04A8,8,0,0,0,48,504H464a8,8,0,0,0,8-7.96l.25-57.63A8.075,8.075,0,0,0,471.94,436.17ZM144,248h-4a12.01,12.01,0,0,1-12-12V212a12.01,12.01,0,0,1,12-12h4Zm228-48a12.01,12.01,0,0,1,12,12v24a12.01,12.01,0,0,1-12,12h-4V200ZM144,64a40,40,0,0,1,70-26.45,8,8,0,0,0,12,0,39.985,39.985,0,0,1,60,0,8,8,0,0,0,12,0,40,40,0,1,1,56.67,56.26A7.968,7.968,0,0,0,352,99.77V160H160V99.77a7.968,7.968,0,0,0-2.67-5.96A40.045,40.045,0,0,1,144,64Zm8,112H360v8H152Zm8,72V200H352v48c0,32.02-21.51,56.09-34.34,67.58C298.4,332.84,274.19,344,256,344s-42.4-11.16-61.66-28.42C164.46,288.8,160,261.75,160,248Zm144,97.1v11.95l-47.5,39.18-48.5-40V345.1c16.38,9.48,33.46,14.9,48,14.9S287.62,354.58,304,345.1ZM208,440v48H136V464a8,8,0,0,0-16,0v24H55.97l-.22-48.5a71.862,71.862,0,0,1,54.09-49.61c.07-.02.15-.03.22-.05l87.93-21.13,45.94,37.89-33.02,27.23A8,8,0,0,0,208,440Zm144,48H304V472h48Zm104.03,0H392V464a8,8,0,0,0-16,0v24h-8V464a8,8,0,0,0-8-8H296a8,8,0,0,0-8,8v24H224V443.77l90.79-74.87,87.15,20.94c.07.02.15.03.22.05a71.862,71.862,0,0,1,54.09,49.61Z"/><circle cx="208" cy="224" r="16"/><circle cx="304" cy="224" r="16"/><path d="M240,304h32a8,8,0,0,0,0-16H240a8,8,0,0,0,0,16Z"/></g></svg>
