<svg id="Capa_1" enable-background="new 0 0 512 512" height="512" viewBox="0 0 512 512" width="512" xmlns="http://www.w3.org/2000/svg"><g><path d="m490.914 323.543c2.1-2.386 5.872-6.753 4.159-12.192-1.73-5.494-7.535-6.906-10.291-7.576l-31.257-7.757c-.036-.009-.069-.017-.102-.025-.077-.129-.155-.263-.229-.387l-16.308-27.245c-1.369-2.294-4.573-7.667-10.608-7.668-6.03 0-9.235 5.364-10.605 7.662l-15.793 26.378c-.2.332-.381.641-.55.928-.063.106-.129.22-.195.332-.037.009-.076.019-.117.029l-31.219 7.747c-2.785.681-8.581 2.097-10.308 7.591-1.71 5.44 2.055 9.801 4.15 12.183l20.067 24.152c.292.352.732.884.479 3.906l-2.397 29.877c-.311 2.895-.882 8.746 3.699 12.201 4.64 3.499 10.303 1.201 13.085.07l27.528-11.462c.997-.42 3.355-.42 4.384.014l27.568 11.478c1.756.71 4.418 1.785 7.265 1.785 1.91 0 3.903-.484 5.762-1.888 4.567-3.45 3.996-9.301 3.685-12.197l-2.395-29.849c-.234-3.077.194-3.593.473-3.929zm-31.613 14.578c-4.062 4.899-4.21 10.403-3.884 14.68l2.031 25.312-23.164-9.645c-4.713-1.989-11.298-1.989-15.979-.014l-23.196 9.658 2.029-25.284c.356-4.238.236-9.741-3.887-14.713l-17.363-20.898 26.716-6.63c5.797-1.416 7.734-4.046 9.665-7.336.143-.244.296-.505.473-.799l13.537-22.609 13.544 22.622.444.749c1.945 3.306 3.893 5.948 9.66 7.368l26.743 6.636z"/><path d="m222.739 250.191-33.817 33.841c-2.928 2.93-2.926 7.679.004 10.606 1.464 1.463 3.382 2.195 5.301 2.195 1.92 0 3.841-.733 5.305-2.199l33.817-33.841c2.928-2.93 2.926-7.679-.004-10.606s-7.678-2.927-10.606.004z"/><path d="m243.834 314.988c1.464 1.463 3.382 2.195 5.301 2.195 1.92 0 3.841-.733 5.305-2.199l60.357-60.399c3.603 2.885 8.046 4.46 12.742 4.46 5.468 0 10.6-2.123 14.439-5.965l6.036-6.011c6.893-6.921 9.555-16.488 8.005-25.454 3.989.464 7.984.708 11.966.708 22.693-.001 44.929-7.459 62.984-21.389.115-.086.23-.171.341-.264 3.298-2.567 6.455-5.349 9.448-8.343l16.839-16.851c40.077-40.104 40.077-105.359 0-145.463-19.343-19.355-45.153-30.013-72.684-30.013-.005 0-.015 0-.02 0-27.523.005-53.323 10.665-72.64 30.01l-16.871 16.855c-2.957 2.959-5.697 6.085-8.236 9.342-.166.191-.321.388-.465.591-16.29 21.216-23.665 48.169-20.563 74.859-1.625-.278-3.284-.429-4.968-.429-7.74 0-15.003 3.002-20.452 8.455l-6.014 6.018c-7.421 7.427-7.92 19.189-1.511 27.208l-159.134 159.243c-20.784 20.828-22.337 53.702-4.693 76.328-20.025 25.015-18.466 61.74 4.7 84.921 11.996 11.989 27.998 18.591 45.06 18.591 17.064 0 33.06-6.604 45.042-18.594l89.089-89.151c.001 0 .001-.001.001-.001.001-.001.002-.002.002-.002 9.148-9.167 21.379-14.215 34.439-14.215s25.291 5.048 34.442 14.218c19.008 19.021 19.009 49.949-.003 68.95l-25.958 26.003c-2.926 2.932-2.922 7.681.009 10.607 1.464 1.461 3.381 2.192 5.299 2.192 1.921 0 3.843-.734 5.308-2.201l25.951-25.998c24.855-24.841 24.857-65.286.007-90.153-11.983-12.007-27.984-18.619-45.056-18.619-17.069 0-33.067 6.61-45.049 18.613-.001.001-.002.002-.003.003l-.003.003-89.085 89.147c-9.149 9.155-21.377 14.197-34.432 14.197-13.057 0-25.293-5.043-34.453-14.197-17.338-17.35-18.848-44.623-4.549-63.714 10.239 7.737 22.484 11.618 34.741 11.618 14.779 0 29.566-5.627 40.827-16.88l9.981-9.988.001-.001s.001-.001.001-.001l65.289-65.334c2.928-2.93 2.926-7.679-.004-10.606-2.93-2.928-7.679-2.927-10.606.004l-59.981 60.022-60.417-60.459 143.744-143.844 60.417 60.459-60.268 60.309c-2.927 2.933-2.925 7.682.005 10.609zm49.998-242.22 27.478 27.498c1.465 1.466 3.385 2.199 5.305 2.199 1.918 0 3.837-.731 5.301-2.195 2.93-2.928 2.932-7.677.004-10.606l-28.962-28.984c.983-1.089 1.986-2.164 3.029-3.208l16.873-16.857c1.037-1.038 2.096-2.047 3.176-3.026l28.982 28.979c1.465 1.464 3.384 2.196 5.303 2.196s3.839-.732 5.304-2.197c2.929-2.929 2.928-7.678 0-10.607l-27.52-27.517c13.841-8.737 29.928-13.44 46.79-13.443h.018c23.52 0 45.566 9.098 62.074 25.617 29.517 29.538 33.56 75.036 12.177 108.975l-27.496-27.515c-2.928-2.93-7.677-2.932-10.606-.004-2.93 2.928-2.932 7.677-.004 10.606l28.972 28.992c-.983 1.087-1.996 2.156-3.043 3.203l-16.839 16.851c-1.042 1.043-2.115 2.046-3.202 3.028l-28.955-28.976c-2.928-2.93-7.677-2.932-10.606-.004-2.93 2.928-2.932 7.677-.004 10.606l27.487 27.506c-20.049 12.566-44.757 16.671-68.316 10.791l-63.497-63.541c-5.878-23.576-1.777-48.303 10.777-68.367zm-48.538 83.536 6.014-6.018c2.615-2.617 6.11-4.058 9.842-4.058 3.731 0 7.227 1.441 9.841 4.057l66.404 66.451c5.429 5.433 5.425 14.292.013 19.727l-6.027 6.002c-1.019 1.019-2.382 1.58-3.841 1.58s-2.823-.561-3.842-1.58l-3.692-3.695c-.001-.001-.002-.002-.003-.004-.001-.001-.002-.002-.004-.003l-71.016-71.063s-.001-.001-.001-.001-.001-.001-.001-.001l-3.687-3.69c-2.122-2.125-2.122-5.58 0-7.704zm-95.543 242.222-4.684 4.688c-16.668 16.657-43.77 16.659-60.413.004-16.647-16.659-16.646-43.786 0-60.466l4.681-4.684z"/><path d="m92.135 165.446c0-7.803-3.057-14.809-8.642-19.892v-78.777l80.1-26.363v52.891c-4.519-.672-9.359-.521-14.291.5-20.36 4.185-36.308 21.501-36.308 39.423 0 8.344 3.479 15.772 9.797 20.915 5.563 4.529 12.882 6.905 20.854 6.905 2.832 0 5.748-.3 8.694-.911 20.354-4.224 36.297-21.552 36.297-39.449 0-8.326-3.479-15.743-9.795-20.883-.081-.066-.167-.124-.248-.189v-69.566c0-2.406-1.154-4.666-3.103-6.076-1.95-1.41-4.457-1.801-6.742-1.048l-95.1 31.3c-3.076 1.013-5.155 3.885-5.155 7.124v76.948c-4.912-.935-10.245-.883-15.691.237-.003.001-.006.001-.009.002-20.355 4.216-36.3 21.545-36.3 39.45 0 8.344 3.479 15.772 9.797 20.916 5.563 4.528 12.882 6.904 20.853 6.904 2.833 0 5.748-.3 8.695-.911 20.354-4.225 36.297-21.553 36.297-39.45zm57.159-19.996c-6.798 1.409-13.007.338-17.033-2.939-2.792-2.272-4.267-5.482-4.267-9.282 0-10.695 11.142-22.021 24.331-24.73.004-.001.009-.002.014-.003 1.96-.407 3.87-.607 5.694-.607 4.499 0 8.47 1.217 11.339 3.552 2.79 2.27 4.264 5.468 4.264 9.249 0 10.683-11.148 22.022-24.342 24.76zm-113.534 41.819c-2.792-2.273-4.267-5.482-4.267-9.283 0-10.688 11.147-22.027 24.341-24.761 6.206-1.276 11.917-.478 15.934 2.171.035.024.072.046.108.07.344.232.681.472.999.732 2.787 2.272 4.26 5.47 4.26 9.249 0 10.684-11.148 22.024-24.342 24.761-6.799 1.409-13.008.336-17.033-2.939z"/></g></svg>