<svg width="30" height="31" viewBox="0 0 30 31" fill="none" xmlns="http://www.w3.org/2000/svg">
<circle cx="15" cy="15.5" r="15" fill="#179893"/>
<g clip-path="url(#clip0)">
<path d="M23.669 12.908C23.4633 12.6771 23.1821 12.527 22.8758 12.4843V12.4837L18.092 11.8229L16.1989 7.29938C15.9225 6.63727 15.1617 6.32461 14.4996 6.60103C14.184 6.73282 13.933 6.98375 13.8013 7.29938L11.9082 11.8229L7.12438 12.4837C6.41165 12.5829 5.91429 13.2412 6.0135 13.9539C6.05613 14.2602 6.2063 14.5413 6.43719 14.747L10.0415 17.9611L9.30089 23.0046C9.22066 23.5167 9.45588 24.027 9.89742 24.2986C10.3328 24.5769 10.8927 24.5665 11.3174 24.2722L15.0001 21.7678L18.6828 24.2748C19.277 24.6781 20.0857 24.5233 20.489 23.9291C20.6723 23.659 20.7474 23.3299 20.6993 23.0071L19.9588 17.9617L23.563 14.7477C24.1003 14.2689 24.1477 13.4453 23.669 12.908ZM18.8441 17.2353C18.6829 17.3794 18.6049 17.5949 18.6365 17.8088L19.4078 23.2084L15.3633 20.4584C15.1452 20.3103 14.8588 20.3103 14.6407 20.4584L10.5724 23.1917L11.3637 17.8062C11.3944 17.5932 11.3164 17.3789 11.156 17.2354L7.29915 13.759L12.4468 13.0487C12.6722 13.0176 12.8643 12.8697 12.952 12.6598L15.0078 7.78601C15.0101 7.78887 15.0118 7.79215 15.0129 7.79565L17.0474 12.6572C17.1351 12.8672 17.3273 13.0151 17.5527 13.0461L22.7068 13.7879L18.8441 17.2353Z" fill="#0D1818"/>
</g>
<defs>
<clipPath id="clip0">
<rect width="18" height="18" fill="white" transform="translate(6 6.5)"/>
</clipPath>
</defs>
</svg>
