<svg width="41" height="41" viewBox="0 0 41 41" fill="none" xmlns="http://www.w3.org/2000/svg">
<circle cx="20.75" cy="20.25" r="20.25" fill="#179893"/>
<g clip-path="url(#clip0)">
<path d="M8.66531 28.5065L16.2932 19.9521C14.8619 16.3091 15.4745 11.8918 18.1315 8.91198C21.5936 5.0296 27.1972 5.02908 30.6596 8.91198C34.1135 12.7852 34.1135 19.0875 30.6596 22.9608C27.915 26.0387 23.8928 26.6247 20.6818 24.9603L13.0928 33.471C11.8693 34.843 9.88854 34.8431 8.665 33.4706C7.44487 32.102 7.44502 29.8751 8.66531 28.5065ZM29.2463 21.3764C31.9211 18.3768 31.9211 13.496 29.2463 10.4963C26.5655 7.4899 22.2263 7.48938 19.5449 10.4963C16.8701 13.496 16.8701 18.3768 19.5449 21.3764C22.2258 24.3829 26.5651 24.3834 29.2463 21.3764ZM10.0786 31.8866C10.5209 32.3827 11.237 32.383 11.6795 31.8866L18.9301 23.7555C18.334 23.2296 17.8028 22.6257 17.3416 21.9457L10.0788 30.0907C9.63723 30.5859 9.63723 31.3914 10.0786 31.8866Z" fill="black"/>
</g>
<defs>
<clipPath id="clip0">
<rect width="27" height="28.5" fill="white" transform="matrix(-1 0 0 1 34 6)"/>
</clipPath>
</defs>
</svg>
