<svg width="41" height="41" viewBox="0 0 41 41" fill="none" xmlns="http://www.w3.org/2000/svg">
<circle cx="20.75" cy="20.25" r="20.25" fill="#179893"/>
<path d="M11.75 13.5H29.75C30.992 13.5 32 12.4931 32 11.25C32 10.0069 30.9931 9 29.75 9H11.75C10.5069 9 9.5 10.0069 9.5 11.25C9.5 12.4931 10.5069 13.5 11.75 13.5ZM29.75 18H11.75C10.5069 18 9.5 19.0069 9.5 20.25C9.5 21.4931 10.5069 22.5 11.75 22.5H29.75C30.992 22.5 32 21.4931 32 20.25C32 19.0069 30.9931 18 29.75 18ZM29.75 27H11.75C10.5069 27 9.5 28.0069 9.5 29.25C9.5 30.4931 10.5069 31.5 11.75 31.5H29.75C30.992 31.5 32 30.4931 32 29.25C32 28.0069 30.9931 27 29.75 27Z" fill="#0D1818"/>
</svg>
