<svg width="37" height="37" viewBox="0 0 37 37" fill="none" xmlns="http://www.w3.org/2000/svg">
<circle cx="18.5" cy="18.5" r="18" fill="#179893"/>
<g clip-path="url(#clip0)">
<path d="M26.3737 8.84755C25.8355 8.84085 25.3955 9.27219 25.3914 9.81036L25.3374 16.9178L11.2512 8.78411C10.9542 8.61271 10.5817 8.61002 10.2821 8.77985C9.98242 8.94968 9.79474 9.26911 9.7921 9.61619L9.65877 27.1654C9.65613 27.5124 9.83895 27.8345 10.1359 28.0137C10.2854 28.1034 10.4567 28.1503 10.6263 28.1524C10.7921 28.1545 10.9562 28.1156 11.105 28.0336L25.312 20.2521L25.258 27.3595C25.2539 27.8977 25.6874 28.3399 26.2256 28.3466C26.7638 28.3533 27.2039 27.922 27.2079 27.3838L27.3413 9.83464C27.3454 9.29646 26.9119 8.85424 26.3737 8.84755Z" fill="#0D1818"/>
</g>
<defs>
<clipPath id="clip0">
<rect width="19.5" height="19.5" fill="white" transform="translate(8.75 8.75)"/>
</clipPath>
</defs>
</svg>
