<svg width="31" height="31" viewBox="0 0 31 31" fill="none" xmlns="http://www.w3.org/2000/svg">
<circle cx="15.5" cy="15.5" r="15" fill="#179893"/>
<g clip-path="url(#clip0)">
<path d="M22.8929 13.8929H17.4286C17.2511 13.8929 17.1071 13.7489 17.1071 13.5714V8.10714C17.1071 7.2196 16.3875 6.5 15.5 6.5C14.6125 6.5 13.8929 7.2196 13.8929 8.10714V13.5714C13.8929 13.7489 13.7489 13.8929 13.5714 13.8929H8.10714C7.2196 13.8929 6.5 14.6125 6.5 15.5C6.5 16.3875 7.2196 17.1071 8.10714 17.1071H13.5714C13.7489 17.1071 13.8929 17.2511 13.8929 17.4286V22.8929C13.8929 23.7804 14.6125 24.5 15.5 24.5C16.3875 24.5 17.1071 23.7804 17.1071 22.8929V17.4286C17.1071 17.2511 17.2511 17.1071 17.4286 17.1071H22.8929C23.7804 17.1071 24.5 16.3875 24.5 15.5C24.5 14.6125 23.7804 13.8929 22.8929 13.8929Z" fill="#0D1818"/>
</g>
<defs>
<clipPath id="clip0">
<rect width="18" height="18" fill="white" transform="translate(6.5 6.5)"/>
</clipPath>
</defs>
</svg>
