<svg width="31" height="31" viewBox="0 0 31 31" fill="none" xmlns="http://www.w3.org/2000/svg">
<circle cx="15.5" cy="15.5" r="15" fill="#179893"/>
<g clip-path="url(#clip0)">
<path d="M24.169 12.908C23.9633 12.6771 23.6821 12.527 23.3758 12.4843V12.4837L18.592 11.8229L16.6989 7.29938C16.4225 6.63727 15.6617 6.32461 14.9996 6.60103C14.684 6.73282 14.433 6.98375 14.3013 7.29938L12.4082 11.8229L7.62438 12.4837C6.91165 12.5829 6.41429 13.2412 6.5135 13.9539C6.55613 14.2602 6.7063 14.5413 6.93719 14.747L10.5415 17.9611L9.80088 23.0046C9.72066 23.5167 9.95588 24.027 10.3974 24.2986C10.8328 24.5769 11.3927 24.5665 11.8174 24.2722L15.5001 21.7678L19.1828 24.2748C19.777 24.6781 20.5857 24.5233 20.989 23.9291C21.1723 23.659 21.2474 23.3299 21.1993 23.0071L20.4588 17.9617L24.063 14.7477C24.6003 14.2689 24.6477 13.4453 24.169 12.908ZM19.3441 17.2353C19.1829 17.3794 19.1049 17.5949 19.1365 17.8088L19.9078 23.2084L15.8633 20.4584C15.6452 20.3103 15.3588 20.3103 15.1407 20.4584L11.0724 23.1917L11.8637 17.8062C11.8944 17.5932 11.8164 17.3789 11.656 17.2354L7.79915 13.759L12.9468 13.0487C13.1722 13.0176 13.3643 12.8697 13.452 12.6598L15.5078 7.78601C15.5101 7.78887 15.5118 7.79215 15.5129 7.79565L17.5474 12.6572C17.6351 12.8672 17.8273 13.0151 18.0527 13.0461L23.2068 13.7879L19.3441 17.2353Z" fill="#0D1818"/>
</g>
<path d="M20 17.75L20.75 23L20 23.75L15.5 21.5L11 23.75H10.25L11 17.75L7.25 14V13.25L12.5 12.5L15.5 7.25L17.75 11.75L23.75 13.25V14L20 17.75Z" fill="#EFB810"/>
<g clip-path="url(#clip1)">
<path d="M23.9988 13.7512L23.5397 14.161L19.6772 17.6082C19.6414 17.6402 19.6241 17.6881 19.6311 17.7357L19.6314 17.738L20.4028 23.1377L20.4907 23.753C20.5213 23.721 20.5496 23.6861 20.5753 23.6483L23.9988 13.7512ZM23.9988 13.7512C24.0055 13.98 23.9147 14.2101 23.7304 14.3743L23.7303 14.3745L20.126 17.5885L19.9249 17.7678L19.9641 18.0343L20.7046 23.0798L20.7048 23.0808C20.7343 23.2795 20.6882 23.482 20.5753 23.6483L23.9988 13.7512ZM20.1354 23.9677L19.6267 23.6219L15.5822 20.872L20.1354 23.9677ZM20.1354 23.9677C19.9149 24.0313 19.6688 24.0001 19.464 23.8613C19.4638 23.8612 19.4637 23.8611 19.4635 23.861L15.7814 21.3545L15.5002 21.163L15.2189 21.3543L11.5362 23.8587L11.5362 23.8587L11.5326 23.8613C11.3243 24.0056 11.0627 24.038 10.8301 23.9568L11.3512 23.6067L15.4196 20.8735L15.4218 20.872C15.4702 20.8391 15.5337 20.8391 15.5821 20.8719L20.1354 23.9677ZM7.12384 13.3475C7.24556 13.1537 7.44885 13.013 7.69322 12.9789C7.69325 12.9789 7.69328 12.9789 7.69332 12.9789L12.4766 12.3182L12.7593 12.2791L12.8694 12.0159L14.7625 7.49241L14.7627 7.49198C14.8437 7.29789 14.9981 7.14352 15.1923 7.06243L7.12384 13.3475ZM7.12384 13.3475L7.7308 13.2637L12.8785 12.5534L12.8785 12.5534C12.9285 12.5465 12.9712 12.5137 12.9907 12.467L12.9913 12.4655L15.0471 7.59169L15.2838 7.03051C15.253 7.0392 15.2225 7.04982 15.1923 7.06243L7.12384 13.3475ZM23.7957 13.2406L23.7957 13.2407C23.8352 13.285 23.8688 13.3324 23.8967 13.3821L23.278 13.293L18.1239 12.5512L18.1239 12.5512L18.121 12.5508C18.0709 12.5439 18.0282 12.5111 18.0088 12.4645L18.0087 12.4642L15.9776 7.61091C15.9581 7.56128 15.9307 7.51349 15.8952 7.46992L15.5123 7.00064C15.8204 7.00549 16.1112 7.18942 16.2375 7.49201L16.2377 7.49241L18.1308 12.0159L18.2409 12.2791L18.5236 12.3182L22.8758 12.9194V12.9195L23.3069 12.9796C23.4957 13.0058 23.6689 13.0984 23.7957 13.2406ZM10.4879 23.7301C10.3317 23.5571 10.2576 23.3198 10.2949 23.082L10.2956 23.0772L11.0361 18.0337L11.0753 17.7672L10.8742 17.5879L7.26996 14.3739L7.26982 14.3737C7.12754 14.247 7.035 14.0737 7.00872 13.885C7.00071 13.8274 6.99901 13.7704 7.0031 13.7146L7.46439 14.1304L11.3213 17.6068L11.3227 17.608C11.3582 17.6398 11.3755 17.6873 11.3689 17.7344C11.3688 17.7345 11.3688 17.7347 11.3688 17.7348L10.5777 23.119L10.4879 23.7301Z" fill="#0D1818" stroke="#0D1818"/>
</g>
<defs>
<clipPath id="clip0">
<rect width="18" height="18" fill="white" transform="translate(6.5 6.5)"/>
</clipPath>
<clipPath id="clip1">
<rect width="18" height="18" fill="white" transform="translate(6.5 6.5)"/>
</clipPath>
</defs>
</svg>
