<svg width="35" height="35" viewBox="0 0 35 35" fill="none" xmlns="http://www.w3.org/2000/svg">
<g clip-path="url(#clip0)">
<path d="M25.4273 17.4983L33.3563 9.56935C35.5457 7.37991 35.5457 3.82981 33.3563 1.64037C31.1669 -0.549069 27.6168 -0.549069 25.4273 1.64037L17.4983 9.56935L9.56935 1.64043C7.37991 -0.549012 3.82981 -0.549012 1.64037 1.64043C-0.549069 3.82987 -0.549069 7.37997 1.64037 9.56941L9.56935 17.4983L1.64043 25.4273C-0.549012 27.6167 -0.549012 31.1668 1.64043 33.3563C3.82987 35.5457 7.37997 35.5457 9.56941 33.3563L17.4983 25.4273L25.4273 33.3563C27.6167 35.5457 31.1668 35.5457 33.3563 33.3563C35.5457 31.1669 35.5457 27.6167 33.3563 25.4273L25.4273 17.4983Z" fill="#0D1818"/>
</g>
<defs>
<clipPath id="clip0">
<rect width="35" height="35" fill="white"/>
</clipPath>
</defs>
</svg>
