<svg width="37" height="37" viewBox="0 0 37 37" fill="none" xmlns="http://www.w3.org/2000/svg">
<circle cx="18.5" cy="18.5" r="18" fill="#179893"/>
<g clip-path="url(#clip0)">
<path d="M10.7003 8.75071C11.2385 8.75071 11.6753 9.18749 11.6753 9.72567V16.8332L25.822 8.87551C26.1203 8.70586 26.4928 8.70781 26.7911 8.88331C27.0894 9.0588 27.2747 9.37859 27.2747 9.72567V27.275C27.2747 27.6221 27.0894 27.9419 26.7911 28.1174C26.641 28.2051 26.4694 28.25 26.2997 28.25C26.134 28.25 25.9702 28.209 25.822 28.1252L11.6753 20.1675V27.275C11.6753 27.8132 11.2385 28.25 10.7003 28.25C10.1621 28.25 9.72534 27.8132 9.72534 27.275V9.72567C9.72534 9.18749 10.1621 8.75071 10.7003 8.75071Z" fill="#0D1818"/>
</g>
<defs>
<clipPath id="clip0">
<rect width="19.5" height="19.5" fill="white" transform="translate(8.75 8.75)"/>
</clipPath>
</defs>
</svg>
