<svg width="53" height="53" viewBox="0 0 53 53" fill="none" xmlns="http://www.w3.org/2000/svg">
<circle cx="26.5" cy="26.5" r="26.5" fill="#179893"/>
<g clip-path="url(#clip0)">
<path d="M39.4519 32.4883L34.4831 28.3476C34.2363 28.1406 33.8918 28.0992 33.602 28.2334C33.3105 28.3708 33.125 28.6623 33.125 28.9836V31.468H31.7387C30.5893 31.468 29.5392 30.885 28.9297 29.9111L23.5668 21.3318C22.3494 19.3824 20.2493 18.218 17.9488 18.218H13.25V21.5305H17.9488C19.0982 21.5305 20.1483 22.1135 20.7578 23.0874L26.1207 31.6668C27.3397 33.6162 29.4398 34.7805 31.7387 34.7805H33.125V37.2649C33.125 37.5862 33.3105 37.8777 33.602 38.0152C33.713 38.0665 33.8339 38.093 33.9531 38.093C34.1436 38.093 34.3324 38.0284 34.4831 37.9009L39.4519 33.7603C39.6423 33.6029 39.75 33.3694 39.75 33.1243C39.75 32.8791 39.6423 32.6456 39.4519 32.4883Z" fill="#77BBAA"/>
<path d="M39.4517 19.2385L34.483 15.0979C34.2362 14.8925 33.8917 14.8494 33.6019 14.9853C33.3104 15.1194 33.1249 15.4126 33.1249 15.7339V18.2183H31.7386C29.4381 18.2183 27.3379 19.3826 26.1206 21.332L25.8208 21.8123L27.7735 24.9377L28.9296 23.0876C29.5391 22.1137 30.5891 21.5308 31.7386 21.5308H33.1249V24.0151C33.1249 24.3364 33.3104 24.6296 33.6019 24.7654C33.7128 24.8167 33.8337 24.8433 33.953 24.8433C34.1435 24.8433 34.3323 24.777 34.483 24.6511L39.4517 20.5105C39.6422 20.3532 39.7499 20.1196 39.7499 19.8745C39.7499 19.6294 39.6422 19.3958 39.4517 19.2385Z" fill="#77BBAA"/>
<path d="M21.9138 28.0613L20.7594 29.9113C20.1499 30.8852 19.0982 31.4682 17.9488 31.4682H13.25V34.7807H17.9488C20.2477 34.7807 22.3478 33.6163 23.5668 31.6669L23.8666 31.1866L21.9138 28.0613Z" fill="#77BBAA"/>
</g>
<defs>
<clipPath id="clip0">
<rect width="26.5" height="26.5" fill="white" transform="translate(13.25 13.25)"/>
</clipPath>
</defs>
</svg>
