<svg width="37" height="37" viewBox="0 0 37 37" fill="none" xmlns="http://www.w3.org/2000/svg">
<circle cx="18.5" cy="18.5" r="18" fill="#179893"/>
<g clip-path="url(#clip0)">
<path d="M27.2975 22.5676L23.9225 19.7551C23.7549 19.6144 23.5209 19.5863 23.324 19.6774C23.126 19.7708 23 19.9688 23 20.1871V21.8746H22.0584C21.2776 21.8746 20.5644 21.4786 20.1504 20.8171L16.5076 14.9896C15.6807 13.6654 14.2543 12.8746 12.6916 12.8746H9.5V15.1246H12.6916C13.4724 15.1246 14.1856 15.5206 14.5996 16.1821L18.2424 22.0096C19.0704 23.3337 20.4969 24.1246 22.0584 24.1246H23V25.8121C23 26.0303 23.126 26.2283 23.324 26.3217C23.3994 26.3566 23.4815 26.3746 23.5625 26.3746C23.6919 26.3746 23.8201 26.3307 23.9225 26.2441L27.2975 23.4316C27.4269 23.3247 27.5 23.1661 27.5 22.9996C27.5 22.8331 27.4269 22.6744 27.2975 22.5676Z" fill="#0D1818"/>
<path d="M27.2975 13.5676L23.9225 10.7551C23.7549 10.6156 23.5209 10.5863 23.324 10.6786C23.126 10.7697 23 10.9688 23 11.1871V12.8746H22.0584C20.4957 12.8746 19.0692 13.6655 18.2424 14.9896L18.0387 15.3158L19.3651 17.4387L20.1504 16.1821C20.5644 15.5206 21.2776 15.1246 22.0584 15.1246H23V16.8121C23 17.0303 23.126 17.2295 23.324 17.3217C23.3994 17.3566 23.4815 17.3746 23.5625 17.3746C23.6919 17.3746 23.8201 17.3296 23.9225 17.2441L27.2975 14.4316C27.4269 14.3247 27.5 14.1661 27.5 13.9996C27.5 13.8331 27.4269 13.6745 27.2975 13.5676Z" fill="#0D1818"/>
<path d="M15.3849 19.5604L14.6007 20.8171C14.1867 21.4786 13.4724 21.8746 12.6916 21.8746H9.5V24.1246H12.6916C14.2531 24.1246 15.6796 23.3337 16.5076 22.0096L16.7112 21.6833L15.3849 19.5604Z" fill="#0D1818"/>
</g>
<defs>
<clipPath id="clip0">
<rect width="18" height="18" fill="white" transform="translate(9.5 9.5)"/>
</clipPath>
</defs>
</svg>
