<svg width="37" height="37" viewBox="0 0 37 37" fill="none" xmlns="http://www.w3.org/2000/svg">
<circle cx="18.5" cy="18.5" r="18" fill="#179893"/>
<g clip-path="url(#clip0)">
<path d="M23.6413 10.1461C23.6413 9.90187 23.4999 9.67048 23.2814 9.56764C23.05 9.45194 22.7929 9.49051 22.6001 9.64477L16.9053 14.1826L23.6413 20.9186V10.1461Z" fill="#77BBAA"/>
<path d="M27.3102 26.4022L10.5987 9.69071C10.348 9.44003 9.94051 9.44003 9.68984 9.69071C9.43916 9.94138 9.43916 10.3489 9.68984 10.5996L13.734 14.645H13.3574C12.9589 14.645 12.6118 14.825 12.3804 15.1078C12.1876 15.3263 12.0719 15.622 12.0719 15.9305V21.0725C12.0719 21.7795 12.6503 22.358 13.3574 22.358H16.3397L22.6001 27.3586C22.7158 27.4486 22.8572 27.5 22.9986 27.5C23.0886 27.5 23.1914 27.4743 23.2814 27.4357C23.5 27.3329 23.6414 27.1015 23.6414 26.8573V24.5524L26.4 27.311C26.526 27.437 26.6906 27.5 26.8551 27.5C27.0196 27.5 27.1842 27.437 27.3102 27.3123C27.5608 27.0604 27.5608 26.6542 27.3102 26.4022Z" fill="#77BBAA"/>
</g>
<defs>
<clipPath id="clip0">
<rect width="18" height="18" fill="white" transform="translate(9.5 9.5)"/>
</clipPath>
</defs>
</svg>
