<svg width="37" height="36" viewBox="0 0 37 36" fill="none" xmlns="http://www.w3.org/2000/svg">
<circle cx="18.5" cy="18" r="18" fill="#179893"/>
<path d="M23.6818 10.5H12.7727C10.1409 10.5 8 12.6409 8 15.2727V21.4091C8 24.0409 10.1409 26.1818 12.7727 26.1818H15.1591C15.9112 26.1818 16.5227 25.5702 16.5227 24.8182C16.5227 24.0662 15.9111 23.4546 15.1591 23.4546H13.1136C11.7981 23.4546 10.7273 22.3841 10.7273 21.0682V15.6136C10.7273 14.2977 11.7981 13.2273 13.1136 13.2273H23.3409C24.6565 13.2273 25.7273 14.2978 25.7273 15.6136V21.0682C25.7273 22.3841 24.6565 23.4545 23.3409 23.4545H22.6591V21.75C22.6591 21.6208 22.5861 21.5028 22.4706 21.4449C22.3553 21.3876 22.2169 21.3999 22.1136 21.4773L18.0227 24.5454C17.9368 24.6099 17.8864 24.7108 17.8864 24.8182C17.8864 24.9256 17.9368 25.0265 18.0227 25.0909L22.1136 28.1591C22.1736 28.2041 22.2459 28.2273 22.3182 28.2273C22.37 28.2273 22.4225 28.2154 22.4706 28.1915C22.5861 28.1335 22.6591 28.0156 22.6591 27.8864V26.1818H23.6818C26.3137 26.1818 28.4545 24.0409 28.4545 21.4091V15.2727C28.4545 12.6409 26.3137 10.5 23.6818 10.5Z" fill="#0D1818"/>
</svg>
