<svg width="30" height="30" viewBox="0 0 30 30" fill="none" xmlns="http://www.w3.org/2000/svg">
<circle cx="15" cy="15" r="15" fill="#179893"/>
<path d="M22.7243 9.24558C21.8738 8.41508 20.6987 8 19.1986 8C18.7834 8 18.3597 8.07198 17.9279 8.21588C17.4959 8.35988 17.094 8.55415 16.7227 8.79856C16.3509 9.0429 16.0314 9.27236 15.7633 9.48658C15.4956 9.70087 15.241 9.9286 15 10.1696C14.7589 9.9286 14.5044 9.70087 14.2366 9.48658C13.9687 9.27236 13.649 9.04304 13.2773 8.79856C12.9056 8.55405 12.5038 8.35991 12.0719 8.21588C11.6401 8.07202 11.2164 8 10.8013 8C9.30123 8 8.12608 8.41518 7.27566 9.24558C6.42524 10.0759 6 11.2276 6 12.7008C6 13.1495 6.07881 13.6117 6.23611 14.0869C6.39341 14.5624 6.57266 14.9676 6.77351 15.3023C6.97433 15.6371 7.20206 15.9636 7.45654 16.2817C7.71101 16.5998 7.89698 16.8189 8.01403 16.9396C8.13119 17.0599 8.22329 17.1471 8.29024 17.2006L14.558 23.2475C14.6786 23.3681 14.8259 23.4285 15 23.4285C15.1741 23.4285 15.3215 23.3681 15.442 23.2478L21.6998 17.2208C23.2333 15.6875 24 14.1808 24 12.7008C24 11.2276 23.5747 10.0759 22.7243 9.24558Z" fill="#0D1818"/>
</svg>
