<svg width="37" height="37" viewBox="0 0 37 37" fill="none" xmlns="http://www.w3.org/2000/svg">
<circle cx="18.5" cy="18.5" r="18" fill="#179893"/>
<g clip-path="url(#clip0)">
<path d="M19.9604 10.1591C19.7516 10.0595 19.5056 10.0859 19.3256 10.2311L13.4888 14.9003H10.7C10.0388 14.9003 9.5 15.4391 9.5 16.1003V20.9003C9.5 21.5627 10.0388 22.1003 10.7 22.1003H13.4888L19.3244 26.7695C19.4336 26.8559 19.5668 26.9003 19.7 26.9003C19.7888 26.9003 19.8776 26.8799 19.9604 26.8403C20.168 26.7407 20.3 26.5307 20.3 26.3003V10.7003C20.3 10.4699 20.168 10.2599 19.9604 10.1591Z" fill="#0D1818"/>
<path d="M23.3372 14.2571C23.1008 14.0243 22.7216 14.0279 22.4888 14.2619C22.256 14.4983 22.2584 14.8775 22.4936 15.1115C23.4008 16.0067 23.9 17.2103 23.9 18.5003C23.9 19.7903 23.4008 20.9939 22.4936 21.8891C22.2584 22.1207 22.256 22.5011 22.4888 22.7375C22.6064 22.8563 22.7612 22.9151 22.9148 22.9151C23.0672 22.9151 23.2196 22.8575 23.3372 22.7411C24.4748 21.6215 25.1 20.1143 25.1 18.5003C25.1 16.8863 24.4748 15.3791 23.3372 14.2571Z" fill="#0D1818"/>
<path d="M25.0304 12.5663C24.794 12.3323 24.4148 12.3347 24.1808 12.5699C23.948 12.8051 23.9504 13.1855 24.1844 13.4183C25.5488 14.7707 26.3 16.5755 26.3 18.5003C26.3 20.4251 25.5488 22.2287 24.1844 23.5811C23.9504 23.8151 23.948 24.1955 24.1808 24.4307C24.2996 24.5483 24.4532 24.6071 24.6068 24.6071C24.7592 24.6071 24.9128 24.5495 25.0304 24.4331C26.624 22.8551 27.5 20.7479 27.5 18.5003C27.5 16.2527 26.624 14.1455 25.0304 12.5663Z" fill="#0D1818"/>
</g>
<defs>
<clipPath id="clip0">
<rect width="18" height="18" fill="white" transform="translate(9.5 9.5)"/>
</clipPath>
</defs>
</svg>
