<svg width="41" height="41" viewBox="0 0 41 41" fill="none" xmlns="http://www.w3.org/2000/svg">
<circle cx="20.25" cy="20.25" r="20.25" fill="#179893"/>
<g clip-path="url(#clip0)">
<path d="M27.1251 15.6636H10.2489L13.7017 12.2108C14.1877 11.7248 14.1877 10.9369 13.7017 10.4509C13.2155 9.96468 12.4277 9.96481 11.9415 10.4509L6.36442 16.0283C5.87838 16.5143 5.87838 17.3022 6.36442 17.7883L11.9415 23.3654C12.1846 23.6085 12.5031 23.7299 12.8215 23.7299C13.14 23.7299 13.4584 23.6083 13.7015 23.3654C14.1876 22.8793 14.1876 22.0914 13.7015 21.6054L10.2488 18.1526H27.1249C29.819 18.1526 32.0108 20.3444 32.0108 23.0385C32.0108 25.7325 29.819 27.9244 27.1249 27.9244H16.859C16.1716 27.9244 15.6145 28.4815 15.6145 29.1689C15.6145 29.8562 16.1716 30.4134 16.859 30.4134H27.1249C31.1914 30.4134 34.4998 27.1049 34.4998 23.0385C34.4998 18.972 31.1915 15.6636 27.1251 15.6636Z" fill="#0D1818"/>
</g>
<defs>
<clipPath id="clip0">
<rect width="28.5" height="28.5" fill="white" transform="translate(6 6)"/>
</clipPath>
</defs>
</svg>
