<svg width="41" height="41" viewBox="0 0 41 41" fill="none" xmlns="http://www.w3.org/2000/svg">
<circle cx="20.25" cy="20.25" r="20.25" fill="#179893"/>
<g clip-path="url(#clip0)">
<path d="M20.2842 -3.15234e-05C9.11313 -0.0189098 0.0418258 9.02176 0.0229475 20.1929C0.0136353 25.7156 2.26286 31.0019 6.24854 34.8248C6.26014 34.8363 6.26446 34.8537 6.27597 34.8638C6.39297 34.9765 6.52012 35.0719 6.63864 35.1803C6.96372 35.4692 7.2888 35.7683 7.63123 36.0472C7.81468 36.1917 8.00541 36.3361 8.19326 36.469C8.5169 36.7103 8.84054 36.9515 9.17857 37.1741C9.40833 37.3186 9.64528 37.463 9.88071 37.6075C10.1927 37.7954 10.5034 37.9846 10.8256 38.1565C11.0987 38.301 11.3775 38.4252 11.6549 38.5567C11.9583 38.7012 12.2574 38.8456 12.568 38.9757C12.8786 39.1057 13.1908 39.2069 13.5057 39.3195C13.8206 39.4322 14.0923 39.5362 14.3942 39.6287C14.7352 39.7313 15.0848 39.8107 15.4316 39.896C15.7205 39.9667 16.0008 40.0477 16.2985 40.1055C16.6972 40.185 17.1018 40.2355 17.5063 40.2905C17.7563 40.3252 18.0005 40.3743 18.2533 40.3988C18.915 40.4638 19.5824 40.5 20.2557 40.5C20.929 40.5 21.5965 40.4638 22.2582 40.3988C22.511 40.3743 22.7552 40.3252 23.0051 40.2905C23.4097 40.2355 23.8141 40.185 24.213 40.1055C24.5019 40.0477 24.7909 39.961 25.0798 39.896C25.4266 39.8107 25.7762 39.7312 26.1172 39.6287C26.4192 39.5362 26.711 39.4236 27.0058 39.3195C27.3005 39.2155 27.6357 39.1028 27.9434 38.9757C28.2511 38.8485 28.5531 38.6997 28.8565 38.5567C29.1339 38.4252 29.4128 38.3009 29.6858 38.1565C30.008 37.9846 30.3186 37.7953 30.6307 37.6075C30.8662 37.463 31.1032 37.3316 31.3329 37.1741C31.671 36.9516 31.9946 36.7103 32.3182 36.469C32.506 36.3245 32.6967 36.1945 32.8802 36.0472C33.2226 35.7726 33.5477 35.4808 33.8728 35.1803C33.9912 35.0719 34.1184 34.9766 34.2355 34.8638C34.247 34.8538 34.2514 34.8364 34.2629 34.8248C38.2343 31.0213 40.479 25.7602 40.477 20.2613C40.496 9.09016 31.4554 0.0188468 20.2842 -3.15234e-05ZM34.3714 30.2839C33.4443 25.9594 30.5966 22.2932 26.636 20.3249C29.8736 16.798 29.6391 11.3142 26.1123 8.07657C22.5854 4.8389 17.1017 5.0734 13.864 8.60025C10.8203 11.9159 10.8203 17.0093 13.864 20.3249C9.90339 22.2932 7.05574 25.9593 6.12859 30.2839C0.578121 22.5001 2.38857 11.6904 10.1724 6.13998C13.1137 4.04263 16.6375 2.91797 20.25 2.92373C29.8102 2.90849 37.5724 10.6461 37.5877 20.2062C37.5934 23.8188 36.4688 27.3426 34.3714 30.2839Z" fill="#0D1818"/>
</g>
<defs>
<clipPath id="clip0">
<rect width="40.5" height="40.5" fill="white"/>
</clipPath>
</defs>
</svg>
