<svg width="150" height="154" viewBox="0 0 150 154" fill="none" xmlns="http://www.w3.org/2000/svg">
<path d="M136.82 76.5709C134.236 73.3534 130.923 70.7866 127.208 69.0767C128.213 65.7741 128.721 62.3438 128.721 58.8291C128.721 50.4002 125.699 42.2418 120.211 35.8571C115.592 30.4826 109.474 26.6363 102.711 24.796C101.84 18.7332 99.0344 13.1407 94.6087 8.76251C89.2814 3.49285 82.2208 0.59082 74.7272 0.59082C67.2336 0.59082 60.1726 3.49285 54.8456 8.76251C50.4199 13.1407 47.6141 18.7332 46.7436 24.796C39.9799 26.6363 33.8625 30.4826 29.2432 35.8571C23.7555 42.2418 20.7332 50.4002 20.7332 58.8291C20.7332 62.3438 21.2408 65.7741 22.2467 69.0767C18.5315 70.7866 15.2181 73.3534 12.6343 76.5709C8.88367 81.2411 6.81824 87.1173 6.81824 93.1172C6.81824 107.704 18.6854 119.571 33.272 119.571H116.183C130.769 119.571 142.636 107.704 142.636 93.1172C142.636 87.1176 140.571 81.2411 136.82 76.5709Z" fill="#0D1818"/>
<path d="M133.969 76.1577C131.515 73.1021 128.369 70.6644 124.84 69.0405C125.795 65.9041 126.278 62.6464 126.278 59.3084C126.278 51.3036 123.407 43.5556 118.196 37.4921C113.809 32.388 107.999 28.7352 101.576 26.9875C100.749 21.2297 98.0844 15.9185 93.8814 11.7606C88.8221 6.75604 82.1166 4 75 4C67.8834 4 61.1777 6.75604 56.1187 11.7606C51.9156 15.9185 49.251 21.2297 48.4242 26.9875C42.0008 28.7352 36.1912 32.388 31.8043 37.4921C26.5927 43.5556 23.7224 51.3036 23.7224 59.3084C23.7224 62.6464 24.2045 65.9041 25.1597 69.0405C21.6315 70.6644 18.4848 73.1021 16.0309 76.1577C12.469 80.593 10.5074 86.1736 10.5074 91.8716C10.5074 105.724 21.7776 116.995 35.6304 116.995H114.37C128.223 116.995 139.493 105.724 139.493 91.8716C139.493 86.1739 137.531 80.593 133.969 76.1577Z" fill="#18CDC6" fill-opacity="0.5"/>
<path d="M139.493 91.8719C139.493 86.1739 137.531 80.593 133.969 76.158C131.515 73.1024 128.369 70.6647 124.84 69.0408C125.795 65.9044 126.278 62.6467 126.278 59.3087C126.278 51.3039 123.407 43.5559 118.196 37.4924C113.809 32.3883 107.999 28.7355 101.576 26.9878C100.749 21.23 98.0844 15.9188 93.8814 11.7609C88.8221 6.75604 82.1166 4 75 4V116.995H114.37C128.222 116.995 139.493 105.724 139.493 91.8719Z" fill="#23A4A0"/>
<path d="M95.4813 67.6883L89.269 61.476L79.3926 71.3525V42.2415H70.6071V55.5074L60.7303 45.6309L54.5181 51.8432L70.6071 67.932V87.1973L60.7303 77.3205L54.5181 83.5328L70.6071 99.6218V149.607H79.3926V83.7767L95.4813 67.6883Z" fill="#C1674C"/>
<path d="M89.2692 61.476L79.3928 71.3525V42.2415H75V149.607H79.3928V83.7767L95.4815 67.6883L89.2692 61.476Z" fill="#8C4A50"/>
<path d="M34.3768 145.214H115.623V154H34.3768V145.214Z" fill="#179893"/>
<path d="M75 145.214H115.623V154H75V145.214Z" fill="#0D1818"/>
</svg>
