<svg width="12" height="12" viewBox="0 0 12 12" fill="none" xmlns="http://www.w3.org/2000/svg">
<g clip-path="url(#clip0)">
<path d="M11.7792 4.27223C11.6421 4.1183 11.4546 4.01819 11.2504 3.98977V3.98934L8.06124 3.54879L6.79919 0.533133C6.61491 0.0917259 6.10769 -0.116712 5.6663 0.0675701C5.45588 0.15543 5.28858 0.322712 5.20074 0.533133L3.93869 3.54879L0.749481 3.98934C0.274327 4.05548 -0.0572498 4.49432 0.0088897 4.96948C0.0373141 5.17367 0.137427 5.36109 0.291351 5.49824L2.69419 7.64095L2.20048 11.0033C2.147 11.3447 2.30381 11.6849 2.59817 11.8659C2.88839 12.0515 3.2617 12.0446 3.54482 11.8483L5.99994 10.1787L8.45506 11.8501C8.85122 12.1189 9.39036 12.0158 9.65926 11.6196C9.78144 11.4396 9.83149 11.2202 9.79942 11.005L9.30573 7.64135L11.7086 5.49865C12.0667 5.1795 12.0984 4.6304 11.7792 4.27223ZM8.56263 7.15711C8.45514 7.25315 8.40313 7.39678 8.4242 7.53938L8.93845 11.1391L6.24207 9.30584C6.09671 9.20706 5.90575 9.20706 5.76039 9.30584L3.04814 11.128L3.57568 7.53767C3.59617 7.39565 3.54419 7.2528 3.43725 7.15713L0.865991 4.83956L4.29776 4.36601C4.44802 4.3453 4.57611 4.24669 4.63459 4.10675L6.00506 0.857554C6.00662 0.859462 6.00777 0.861646 6.0085 0.863982L7.36484 4.10505C7.42332 4.24498 7.55143 4.34359 7.70166 4.36431L11.1377 4.85885L8.56263 7.15711Z" fill="#77BBAA"/>
</g>
<defs>
<clipPath id="clip0">
<rect width="12" height="12" fill="white"/>
</clipPath>
</defs>
</svg>
