<svg width="22" height="22" viewBox="0 0 22 22" fill="none" xmlns="http://www.w3.org/2000/svg">
<g clip-path="url(#clip0)">
<path d="M20.6322 8.12005C20.4036 7.86351 20.0912 7.69666 19.7509 7.64928V7.64857L14.4356 6.91432L12.3321 1.88823C12.025 1.15255 11.1796 0.805155 10.444 1.11229C10.0933 1.25872 9.81445 1.53753 9.66806 1.88823L7.56465 6.91432L2.2493 7.64857C1.45737 7.75881 0.904746 8.49022 1.01498 9.28214C1.06235 9.62247 1.22921 9.93483 1.48575 10.1634L5.49049 13.7346L4.66763 19.3385C4.57849 19.9075 4.83985 20.4744 5.33045 20.7762C5.81415 21.0855 6.43633 21.074 6.90819 20.7469L11.0001 17.9642L15.0919 20.7498C15.7522 21.1979 16.6508 21.0259 17.0989 20.3657C17.3026 20.0656 17.386 19.7 17.3325 19.3413L16.5097 13.7353L20.5145 10.1641C21.1114 9.63217 21.1641 8.717 20.6322 8.12005ZM15.2712 12.9282C15.0921 13.0883 15.0054 13.3276 15.0405 13.5653L15.8976 19.5649L11.4036 16.5094C11.1613 16.3448 10.8431 16.3448 10.6008 16.5094L6.0804 19.5463L6.95962 13.5625C6.99377 13.3258 6.90714 13.0877 6.72891 12.9282L2.44348 9.06561L8.1631 8.27636C8.41353 8.24184 8.62701 8.07749 8.72447 7.84426L11.0086 2.42893C11.0112 2.43211 11.0131 2.43575 11.0143 2.43964L13.2749 7.84142C13.3724 8.07465 13.5859 8.23899 13.8363 8.27352L19.563 9.09775L15.2712 12.9282Z" fill="#18CDC6"/>
</g>
<path d="M1.5 8.5L8.5 7.5L10.5 2.5L11 2L14 7.5L20 8.5V10L15.5 13V14L16.5 20L16 20.5L11 17L6 20.5L5.5 19.5L6 13.5L1.5 8.5Z" fill="#18CDC6" stroke="#18CDC6" stroke-width="0.01"/>
<defs>
<clipPath id="clip0">
<rect width="20" height="20" fill="white" transform="translate(1 1)"/>
</clipPath>
</defs>
</svg>
