<svg width="17" height="19" viewBox="0 0 17 19" fill="none" xmlns="http://www.w3.org/2000/svg">
<path d="M0.610207 15.0043L5.69548 9.30142C4.74129 6.87273 5.14965 3.9279 6.92098 1.94132C9.22905 -0.646932 12.9648 -0.64728 15.2731 1.94132C17.5756 4.5235 17.5756 8.72503 15.2731 11.3072C13.4433 13.3591 10.7618 13.7498 8.62121 12.6402L3.56188 18.314C2.74618 19.2287 1.42569 19.2288 0.610001 18.3138C-0.203419 17.4013 -0.203318 15.9168 0.610207 15.0043ZM14.3308 10.251C16.1141 8.25121 16.1141 4.99735 14.3308 2.99752C12.5437 0.993267 9.65085 0.99292 7.86329 2.99752C6.08007 4.99735 6.08007 8.25121 7.86329 10.251C9.65054 12.2552 12.5434 12.2556 14.3308 10.251ZM1.55241 17.2577C1.84729 17.5885 2.32469 17.5887 2.61967 17.2577L7.45337 11.837C7.05597 11.4864 6.70187 11.0838 6.39438 10.6305L1.55251 16.0604C1.25815 16.3906 1.25815 16.9276 1.55241 17.2577Z" fill="#0D1818"/>
</svg>
