<svg width="24" height="24" viewBox="0 0 24 24" fill="none" xmlns="http://www.w3.org/2000/svg">
<rect x="1" y="1" width="22" height="22" fill="#18CDC6"/>
<path d="M17.1496 7.83039C16.5825 7.27672 15.7992 7 14.799 7C14.5223 7 14.2398 7.04799 13.9519 7.14392C13.6639 7.23992 13.396 7.36943 13.1485 7.53237C12.9006 7.69527 12.6876 7.84824 12.5089 7.99105C12.3304 8.13391 12.1607 8.28574 12 8.4464C11.8393 8.28574 11.6696 8.13391 11.4911 7.99105C11.3125 7.84824 11.0994 7.69536 10.8515 7.53237C10.6038 7.36936 10.3359 7.23994 10.0479 7.14392C9.76004 7.04801 9.47763 7 9.20086 7C8.20082 7 7.41739 7.27679 6.85044 7.83039C6.2835 8.38394 6 9.15175 6 10.1339C6 10.433 6.05254 10.7411 6.1574 11.058C6.26227 11.3749 6.38177 11.645 6.51567 11.8682C6.64955 12.0914 6.80138 12.3091 6.97102 12.5211C7.14067 12.7332 7.26465 12.8793 7.34269 12.9597C7.42079 13.04 7.4822 13.0981 7.52683 13.1337L11.7054 17.165C11.7857 17.2454 11.8839 17.2857 12 17.2857C12.116 17.2857 12.2143 17.2454 12.2946 17.1652L16.4665 13.1472C17.4889 12.125 18 11.1205 18 10.1339C18 9.15175 17.7165 8.38394 17.1496 7.83039Z" fill="#F6FFFF"/>
<path d="M8 1.5H16V0.5H8V1.5ZM22.5 8V16H23.5V8H22.5ZM16 22.5H8V23.5H16V22.5ZM1.5 16V8H0.5V16H1.5ZM8 22.5C4.41015 22.5 1.5 19.5899 1.5 16H0.5C0.5 20.1421 3.85786 23.5 8 23.5V22.5ZM22.5 16C22.5 19.5899 19.5899 22.5 16 22.5V23.5C20.1421 23.5 23.5 20.1421 23.5 16H22.5ZM16 1.5C19.5899 1.5 22.5 4.41015 22.5 8H23.5C23.5 3.85786 20.1421 0.5 16 0.5V1.5ZM8 0.5C3.85786 0.5 0.5 3.85786 0.5 8H1.5C1.5 4.41015 4.41015 1.5 8 1.5V0.5Z" fill="#0D1818"/>
</svg>
