<svg width="2002" height="2002" viewBox="0 0 2002 2002" fill="none" xmlns="http://www.w3.org/2000/svg">
<rect x="1" y="1" width="2000" height="2000" fill="#18CDC6"/>
<path d="M1469.14 621.944C1417.59 571.611 1346.38 546.455 1255.46 546.455C1230.3 546.455 1204.62 550.817 1178.45 559.538C1152.27 568.265 1127.91 580.039 1105.41 594.852C1082.87 609.661 1063.51 623.567 1047.26 636.55C1031.04 649.538 1015.61 663.34 1001 677.946C986.387 663.34 970.964 649.538 954.736 636.55C938.496 623.567 919.123 609.669 896.594 594.852C874.069 580.033 849.716 568.267 823.541 559.538C797.368 550.819 771.693 546.455 746.533 546.455C655.62 546.455 584.399 571.617 532.858 621.944C481.318 672.267 455.545 742.068 455.545 831.354C455.545 858.546 460.322 886.555 469.855 915.36C479.388 944.175 490.252 968.732 502.425 989.02C514.596 1009.31 528.398 1029.1 543.82 1048.38C559.243 1067.65 570.514 1080.93 577.608 1088.25C584.708 1095.54 590.29 1100.82 594.348 1104.07L974.214 1470.55C981.521 1477.86 990.449 1481.51 1001 1481.51C1011.55 1481.51 1020.48 1477.86 1027.79 1470.56L1407.05 1105.29C1499.99 1012.36 1546.45 921.046 1546.45 831.354C1546.46 742.068 1520.68 672.267 1469.14 621.944Z" fill="#F6FFFF"/>
<path d="M8 1.5H1994V0.5H8V1.5ZM2000.5 8V1994H2001.5V8H2000.5ZM1994 2000.5H7.99997V2001.5H1994V2000.5ZM1.5 1994V7.99997H0.5V1994H1.5ZM7.99997 2000.5C4.41012 2000.5 1.5 1997.59 1.5 1994H0.5C0.5 1998.14 3.85783 2001.5 7.99997 2001.5V2000.5ZM2000.5 1994C2000.5 1997.59 1997.59 2000.5 1994 2000.5V2001.5C1998.14 2001.5 2001.5 1998.14 2001.5 1994H2000.5ZM1994 1.5C1997.59 1.5 2000.5 4.41015 2000.5 8H2001.5C2001.5 3.85787 1998.14 0.5 1994 0.5V1.5ZM8 0.5C3.85787 0.5 0.5 3.85783 0.5 7.99997H1.5C1.5 4.41012 4.41015 1.5 8 1.5V0.5Z" fill="#0D1818"/>
</svg>
