<svg width="1000" height="1000" viewBox="0 0 1000 1000" fill="none" xmlns="http://www.w3.org/2000/svg">
<rect width="1000" height="1000" fill="#18CDC6"/>
<path d="M734.071 310.472C708.297 285.305 672.689 272.727 627.229 272.727C614.649 272.727 601.81 274.909 588.724 279.269C575.633 283.633 563.455 289.52 552.203 296.926C540.936 304.33 531.254 311.284 523.131 317.775C515.018 324.269 507.304 331.17 500 338.473C492.693 331.17 484.982 324.269 476.868 317.775C468.748 311.284 459.061 304.335 447.797 296.926C436.534 289.517 424.358 283.634 411.27 279.269C398.184 274.91 385.347 272.727 372.766 272.727C327.31 272.727 291.7 285.309 265.929 310.472C240.159 335.634 227.273 370.534 227.273 415.177C227.273 428.773 229.661 442.778 234.427 457.18C239.194 471.587 244.626 483.866 250.712 494.01C256.798 504.153 263.699 514.049 271.41 523.688C279.121 533.327 284.757 539.967 288.304 543.623C291.854 547.271 294.645 549.912 296.674 551.533L486.607 734.773C490.26 738.429 494.724 740.257 499.999 740.257C505.275 740.257 509.742 738.429 513.393 734.78L703.024 552.147C749.494 505.682 772.727 460.023 772.727 415.177C772.728 370.534 759.84 335.634 734.071 310.472Z" fill="#F6FFFF"/>
</svg>
