<svg width="200" height="200" viewBox="0 0 200 200" fill="none" xmlns="http://www.w3.org/2000/svg">
<rect width="200" height="200" fill="#77BBAA"/>
<path d="M111.328 175H88.6719C87.3774 175 86.3281 173.951 86.3281 172.656C86.3281 171.362 87.3774 170.312 88.6719 170.312H111.328C112.623 170.312 113.672 171.362 113.672 172.656C113.672 173.951 112.623 175 111.328 175Z" fill="#0D1818"/>
<path d="M111.328 139.688H88.6719C87.3774 139.688 86.3281 138.638 86.3281 137.344C86.3281 136.049 87.3774 135 88.6719 135H111.328C112.623 135 113.672 136.049 113.672 137.344C113.672 138.638 112.623 139.688 111.328 139.688Z" fill="#0D1818"/>
<path d="M103.591 147.578H96.4094C96.9351 148.506 97.731 149.268 98.7143 149.759L100 150.402L101.285 149.759C102.269 149.268 103.065 148.506 103.591 147.578V147.578Z" fill="#0D1818"/>
<path d="M88.6719 144.887C88.6719 147.206 89.3163 149.475 90.5355 151.447C91.398 152.843 92.5214 154.047 93.8395 155C92.5214 155.953 91.398 157.157 90.5355 158.552C89.3163 160.525 88.6719 162.794 88.6719 165.113V167.969H93.3788L93.3999 166.699C93.4005 166.663 93.4028 166.627 93.4068 166.591C93.6961 163.958 95.2884 161.677 97.6663 160.488L98.828 159.907V152.437L97.6659 151.855C95.5853 150.815 94.0908 148.926 93.5659 146.672C93.4848 146.324 93.5672 145.958 93.7895 145.678C94.0118 145.398 94.3498 145.234 94.7073 145.234H105.293C105.65 145.234 105.988 145.398 106.21 145.678C106.433 145.958 106.515 146.324 106.434 146.672C105.909 148.926 104.414 150.815 102.334 151.856L101.172 152.437V159.907L102.334 160.488C104.712 161.677 106.304 163.958 106.593 166.591C106.597 166.627 106.599 166.663 106.6 166.699L106.621 167.969H111.328V165.113C111.328 162.794 110.684 160.525 109.465 158.552C108.602 157.157 107.479 155.952 106.161 155C107.479 154.047 108.602 152.843 109.465 151.447C110.684 149.475 111.328 147.206 111.328 144.887V142.031H88.6719V144.887Z" fill="#0D1818"/>
<path d="M95.7424 166.795L95.7229 167.969H104.277L104.258 166.795C104.041 164.979 102.933 163.408 101.286 162.585L100 161.942L98.7146 162.584C97.0672 163.408 95.9593 164.979 95.7424 166.795Z" fill="#0D1818"/>
</svg>
